<svg width="144" height="34" viewBox="0 0 144 34" fill="none" xmlns="http://www.w3.org/2000/svg">
<path d="M21.5508 5.67773H13.7109V27H8.4375V5.67773H0.703125V1.40625H21.5508V5.67773ZM32.3086 27C32.0742 26.543 31.9043 25.9746 31.7988 25.2949C30.5684 26.666 28.9688 27.3516 27 27.3516C25.1367 27.3516 23.5898 26.8125 22.3594 25.7344C21.1406 24.6562 20.5312 23.2969 20.5312 21.6562C20.5312 19.6406 21.2754 18.0938 22.7637 17.0156C24.2637 15.9375 26.4258 15.3926 29.25 15.3809H31.5879V14.291C31.5879 13.4121 31.3594 12.709 30.9023 12.1816C30.457 11.6543 29.748 11.3906 28.7754 11.3906C27.9199 11.3906 27.2461 11.5957 26.7539 12.0059C26.2734 12.416 26.0332 12.9785 26.0332 13.6934H20.9531C20.9531 12.5918 21.293 11.5723 21.9727 10.6348C22.6523 9.69727 23.6133 8.96484 24.8555 8.4375C26.0977 7.89844 27.4922 7.62891 29.0391 7.62891C31.3828 7.62891 33.2402 8.2207 34.6113 9.4043C35.9941 10.5762 36.6855 12.2285 36.6855 14.3613V22.6055C36.6973 24.4102 36.9492 25.7754 37.4414 26.7012V27H32.3086ZM28.1074 23.4668C28.8574 23.4668 29.5488 23.3027 30.1816 22.9746C30.8145 22.6348 31.2832 22.1836 31.5879 21.6211V18.3516H29.6895C27.1465 18.3516 25.793 19.2305 25.6289 20.9883L25.6113 21.2871C25.6113 21.9199 25.834 22.4414 26.2793 22.8516C26.7246 23.2617 27.334 23.4668 28.1074 23.4668ZM52.6047 6.984C54.7167 6.984 56.4087 7.56 57.6807 8.712C58.9527 9.84 59.5887 11.664 59.5887 14.184V27H54.2247V15.516C54.2247 14.1 53.9727 13.044 53.4687 12.348C52.9647 11.628 52.1607 11.268 51.0567 11.268C49.4247 11.268 48.3087 11.832 47.7087 12.96C47.1087 14.064 46.8087 15.66 46.8087 17.748V27H41.4447V7.344H45.5487L46.2687 9.864H46.5567C47.1807 8.856 48.0327 8.124 49.1127 7.668C50.2167 7.212 51.3807 6.984 52.6047 6.984ZM56.5647 29.916V33.624H44.6487V29.916H56.5647ZM76.2649 6.984C78.3769 6.984 80.0689 7.56 81.3409 8.712C82.6129 9.84 83.2489 11.664 83.2489 14.184V27H77.8849V15.516C77.8849 14.1 77.6329 13.044 77.1289 12.348C76.6249 11.628 75.8209 11.268 74.7169 11.268C73.0849 11.268 71.9689 11.832 71.3689 12.96C70.7689 14.064 70.4689 15.66 70.4689 17.748V27H65.1049V7.344H69.2089L69.9289 9.864H70.2169C70.8409 8.856 71.6929 8.124 72.7729 7.668C73.8769 7.212 75.0409 6.984 76.2649 6.984ZM80.2249 29.916V33.624H68.3089V29.916H80.2249ZM98.9297 27C98.6953 26.543 98.5254 25.9746 98.4199 25.2949C97.1895 26.666 95.5898 27.3516 93.6211 27.3516C91.7578 27.3516 90.2109 26.8125 88.9805 25.7344C87.7617 24.6562 87.1523 23.2969 87.1523 21.6562C87.1523 19.6406 87.8965 18.0938 89.3848 17.0156C90.8848 15.9375 93.0469 15.3926 95.8711 15.3809H98.209V14.291C98.209 13.4121 97.9805 12.709 97.5234 12.1816C97.0781 11.6543 96.3691 11.3906 95.3965 11.3906C94.541 11.3906 93.8672 11.5957 93.375 12.0059C92.8945 12.416 92.6543 12.9785 92.6543 13.6934H87.5742C87.5742 12.5918 87.9141 11.5723 88.5938 10.6348C89.2734 9.69727 90.2344 8.96484 91.4766 8.4375C92.7188 7.89844 94.1133 7.62891 95.6602 7.62891C98.0039 7.62891 99.8613 8.2207 101.232 9.4043C102.615 10.5762 103.307 12.2285 103.307 14.3613V22.6055C103.318 24.4102 103.57 25.7754 104.062 26.7012V27H98.9297ZM94.7285 23.4668C95.4785 23.4668 96.1699 23.3027 96.8027 22.9746C97.4355 22.6348 97.9043 22.1836 98.209 21.6211V18.3516H96.3105C93.7676 18.3516 92.4141 19.2305 92.25 20.9883L92.2324 21.2871C92.2324 21.9199 92.4551 22.4414 92.9004 22.8516C93.3457 23.2617 93.9551 23.4668 94.7285 23.4668ZM101.742 4.39453H89.6133V1.45898H101.742V4.39453ZM113.291 3.30469V7.98047H116.543V11.707H113.291V21.1992C113.291 21.9023 113.426 22.4062 113.695 22.7109C113.965 23.0156 114.48 23.168 115.242 23.168C115.805 23.168 116.303 23.127 116.736 23.0449V26.8945C115.74 27.1992 114.715 27.3516 113.66 27.3516C110.098 27.3516 108.281 25.5527 108.211 21.9551V11.707H105.434V7.98047H108.211V3.30469H113.291ZM110.021 31.1133C110.021 30.4102 110.285 29.8301 110.812 29.373C111.34 28.916 112.02 28.6875 112.852 28.6875C113.695 28.6875 114.381 28.916 114.908 29.373C115.436 29.8301 115.699 30.4102 115.699 31.1133C115.699 31.8047 115.436 32.3848 114.908 32.8535C114.393 33.3223 113.707 33.5566 112.852 33.5566C111.996 33.5566 111.311 33.3223 110.795 32.8535C110.279 32.3848 110.021 31.8047 110.021 31.1133ZM127.283 23.2559C128.221 23.2559 128.982 22.998 129.568 22.4824C130.154 21.9668 130.459 21.2812 130.482 20.4258H135.246C135.234 21.7148 134.883 22.8984 134.191 23.9766C133.5 25.043 132.551 25.875 131.344 26.4727C130.148 27.0586 128.824 27.3516 127.371 27.3516C124.652 27.3516 122.508 26.4902 120.938 24.7676C119.367 23.0332 118.582 20.6426 118.582 17.5957V17.2617C118.582 14.332 119.361 11.9941 120.92 10.248C122.479 8.50195 124.617 7.62891 127.336 7.62891C129.715 7.62891 131.619 8.30859 133.049 9.66797C134.49 11.0156 135.223 12.8145 135.246 15.0645H130.482C130.459 14.0801 130.154 13.2832 129.568 12.6738C128.982 12.0527 128.209 11.7422 127.248 11.7422C126.064 11.7422 125.168 12.1758 124.559 13.043C123.961 13.8984 123.662 15.293 123.662 17.2266V17.7539C123.662 19.7109 123.961 21.1172 124.559 21.9727C125.156 22.8281 126.064 23.2559 127.283 23.2559ZM143.508 27H138.41V7.98047H143.508V27ZM138.111 3.05859C138.111 2.29688 138.363 1.66992 138.867 1.17773C139.383 0.685547 140.08 0.439453 140.959 0.439453C141.826 0.439453 142.518 0.685547 143.033 1.17773C143.549 1.66992 143.807 2.29688 143.807 3.05859C143.807 3.83203 143.543 4.46484 143.016 4.95703C142.5 5.44922 141.814 5.69531 140.959 5.69531C140.104 5.69531 139.412 5.44922 138.885 4.95703C138.369 4.46484 138.111 3.83203 138.111 3.05859Z" fill="black"/>
</svg>
